<svg width="148" height="24" viewBox="0 0 148 24" fill="none" xmlns="http://www.w3.org/2000/svg">
<g clip-path="url(#clip0_10797_88)">
<path d="M28.8946 5.65962V5.65313C26.4052 5.65313 24.2463 7.09236 23.2091 9.17988H30.8719V14.8266H23.2091C24.2528 16.9141 26.4052 18.3533 28.8946 18.3533H30.8719V24H28.8946V24.0065C22.269 24.0065 16.9011 18.6321 16.9011 12.0065C16.9011 5.38085 22.269 0.0129395 28.8946 0.0129395V0.0194224H30.8719V5.6661H28.8946V5.65962Z" fill="#FE3B1F"/>
<path d="M83.3323 5.65962V5.65313C80.8428 5.65313 78.684 7.09236 77.6467 9.17988H85.3096V14.8266H77.6467C78.6905 16.9141 80.8493 18.3533 83.3323 18.3533H85.3096V24H83.3323V24.0065C76.7067 24.0065 71.3323 18.6321 71.3323 12.0065C71.3323 5.38085 76.7067 0.0129395 83.3323 0.0129395V0.0194224H85.3096V5.6661H83.3323V5.65962Z" fill="#FE3B1F"/>
<path d="M39.0535 0.0065918L33.4133 0.0130748V23.9871H39.0535V24.0001C45.6791 24.0001 51.0535 18.6322 51.0535 12.0001C51.0535 5.38098 45.6791 0.0065918 39.0535 0.0065918ZM39.0535 18.3534V5.65327C42.5543 5.65327 45.4068 8.4993 45.4068 12.0001C45.4068 15.5074 42.5608 18.3534 39.0535 18.3534Z" fill="#FE3B1F"/>
<path d="M66.7488 9.73104C67.1832 8.84287 67.423 7.84449 67.423 6.78777C67.423 3.05357 64.3955 0.0195312 60.6548 0.0195312H53.5948V23.9871H59.235V23.9936H62.0551V24.0001C66.4182 24.0001 69.9579 20.4539 69.9579 16.0973C69.9644 13.4847 68.6937 11.1703 66.7488 9.73104ZM59.235 5.65973H60.6483C61.2707 5.66621 61.7764 6.1654 61.7764 6.78777C61.7764 7.41661 61.2642 7.92229 60.6418 7.92229H59.235V5.65973ZM62.0551 18.3534H59.235V13.8348H62.0551C63.2999 13.8348 64.3177 14.8526 64.3177 16.0973C64.3177 17.3421 63.2999 18.3534 62.0551 18.3534Z" fill="#FE3B1F"/>
<path d="M142.697 0.0065918L135.332 13.556V24.0001H129.173V13.556L121.809 0.0065918H128.752L132.253 6.45068L135.754 0.0065918H142.697Z" fill="#FE3B1F"/>
<path d="M12.4408 14.3144C14.3209 12.8493 15.5397 10.5673 15.5397 7.99352C15.5397 3.57861 11.9611 0 7.53971 0C6.98217 0 0 0 0 0V23.9935H5.91248V16H6.91734L11.3971 23.9935H17.8606L12.4408 14.3144ZM5.91248 5.91248H7.53971C8.68719 5.91248 9.62723 6.84603 9.62723 8C9.62723 9.15397 8.68719 10.0875 7.53971 10.0875H5.91248V5.91248Z" fill="#FE3B1F"/>
<path d="M100.292 14.3144C102.178 12.8493 103.391 10.5673 103.391 7.99352C103.391 3.57861 99.812 0 95.3907 0C94.8331 0 87.851 0 87.851 0V23.9935H93.7634V16H94.7683L99.248 23.9935H105.712L100.292 14.3144ZM93.7634 5.91248H95.3907C96.5446 5.91248 97.4782 6.84603 97.4782 8C97.4782 9.15397 96.5381 10.0875 95.3907 10.0875H93.7634V5.91248Z" fill="#FE3B1F"/>
<path d="M119.423 14.3144C121.31 12.8493 122.522 10.5673 122.522 7.99352C122.522 3.57861 118.943 0 114.522 0C113.964 0 106.982 0 106.982 0V23.9935H112.895V16H113.9L118.379 23.9935H124.843L119.423 14.3144ZM112.888 5.91248H114.515C115.663 5.91248 116.603 6.84603 116.603 8C116.603 9.15397 115.663 10.0875 114.515 10.0875H112.888V5.91248Z" fill="#FE3B1F"/>
<path d="M147.319 2.73593C147.008 3.04711 146.632 3.2027 146.191 3.2027C145.971 3.2027 145.763 3.15732 145.569 3.07952C145.374 2.99525 145.206 2.87855 145.063 2.73593C144.92 2.5933 144.804 2.41826 144.726 2.23025C144.642 2.03576 144.603 1.82831 144.603 1.60789C144.603 1.38747 144.648 1.18001 144.726 0.985522C144.81 0.791032 144.927 0.622475 145.07 0.473366C145.212 0.324258 145.387 0.214047 145.582 0.129768C145.776 0.0454897 145.984 0.0065918 146.204 0.0065918C146.418 0.0065918 146.625 0.0519727 146.82 0.129768C147.014 0.214047 147.183 0.330741 147.326 0.473366C147.475 0.615992 147.585 0.791032 147.676 0.985522C147.76 1.18001 147.805 1.38747 147.805 1.60789C147.799 2.04873 147.637 2.42474 147.319 2.73593ZM146.211 0.265911C146.029 0.265911 145.86 0.298326 145.705 0.369639C145.549 0.440952 145.407 0.531713 145.29 0.65489C145.173 0.778067 145.076 0.920692 145.011 1.08277C144.94 1.24484 144.907 1.41988 144.907 1.60789C144.907 1.78941 144.94 1.96445 145.011 2.12653C145.076 2.2886 145.173 2.43123 145.29 2.54792C145.407 2.66461 145.549 2.76186 145.705 2.83317C145.86 2.90448 146.036 2.9369 146.211 2.9369C146.386 2.9369 146.554 2.898 146.71 2.83317C146.872 2.76186 147.008 2.66461 147.125 2.54144C147.241 2.41826 147.339 2.28212 147.41 2.12004C147.481 1.95797 147.514 1.78941 147.514 1.60141C147.514 1.4134 147.481 1.24484 147.41 1.08277C147.345 0.920692 147.248 0.778067 147.131 0.661373C147.014 0.538196 146.872 0.447434 146.716 0.376122C146.561 0.304809 146.392 0.265911 146.211 0.265911ZM145.53 2.48957V0.661373H146.152C146.437 0.661373 146.645 0.713237 146.762 0.810481C146.885 0.907726 146.943 1.03739 146.943 1.19298C146.943 1.29671 146.911 1.39395 146.846 1.48471C146.781 1.57547 146.69 1.6403 146.567 1.67272L146.989 2.45716L146.671 2.50254L146.262 1.7181H145.835V2.48957H145.53ZM146.178 1.4523C146.489 1.4523 146.645 1.36153 146.645 1.18649C146.645 1.01145 146.483 0.920692 146.159 0.920692H145.841V1.4523H146.178Z" fill="#FE3B1F"/>
</g>
<defs>
<clipPath id="clip0_10797_88">
<rect width="147.799" height="24" fill="white"/>
</clipPath>
</defs>
</svg>
